<mxfile host="app.diagrams.net" agent="Mozilla/5.0 (Windows NT 10.0; Win64; x64) AppleWebKit/537.36 (KHTML, like Gecko) Chrome/141.0.0.0 Safari/537.36 Edg/141.0.0.0" version="28.2.7">
  <diagram name="DNA药物产业链全景" id="Sb4ZDDVt_v8mFXcjm3wC">
    <mxGraphModel dx="1718" dy="1777" grid="1" gridSize="10" guides="1" tooltips="1" connect="1" arrows="1" fold="1" page="1" pageScale="1" pageWidth="827" pageHeight="1169" math="0" shadow="0">
      <root>
        <mxCell id="0" />
        <mxCell id="1" parent="0" />
        <mxCell id="CEepUaHy8Ifzq-DvnbG--1" value="" style="rounded=0;whiteSpace=wrap;html=1;fillColor=#F5F8FC;strokeColor=none;" parent="1" vertex="1">
          <mxGeometry x="-130" y="-30" width="1160" height="760" as="geometry" />
        </mxCell>
        <mxCell id="CEepUaHy8Ifzq-DvnbG--2" value="&lt;b&gt;上游 · 研发与原料&lt;/b&gt;" style="text;html=1;strokeColor=none;fillColor=none;align=left;verticalAlign=middle;whiteSpace=wrap;fontColor=#005BAA;fontSize=20;" parent="1" vertex="1">
          <mxGeometry x="60" y="60" width="240" height="30" as="geometry" />
        </mxCell>
        <mxCell id="CEepUaHy8Ifzq-DvnbG--3" value="&lt;b&gt;1. 科研院所靶点发现&lt;/b&gt;" style="rounded=1;whiteSpace=wrap;html=1;fillColor=#E6F0FF;strokeColor=#005BAA;fontSize=14;" parent="1" vertex="1">
          <mxGeometry x="60" y="100" width="180" height="60" as="geometry" />
        </mxCell>
        <mxCell id="CEepUaHy8Ifzq-DvnbG--4" value="&lt;b&gt;2. 双链DNA合成与评估&lt;/b&gt;" style="rounded=1;whiteSpace=wrap;html=1;fillColor=#E6F0FF;strokeColor=#005BAA;fontSize=14;" parent="1" vertex="1">
          <mxGeometry x="260" y="100" width="180" height="60" as="geometry" />
        </mxCell>
        <mxCell id="CEepUaHy8Ifzq-DvnbG--5" value="&lt;b&gt;3. 免疫增强佐剂&lt;/b&gt;" style="rounded=1;whiteSpace=wrap;html=1;fillColor=#E6F0FF;strokeColor=#005BAA;fontSize=14;" parent="1" vertex="1">
          <mxGeometry x="460" y="100" width="180" height="60" as="geometry" />
        </mxCell>
        <mxCell id="CEepUaHy8Ifzq-DvnbG--6" value="&lt;b&gt;中游 · 量产与递送&lt;/b&gt;" style="text;html=1;strokeColor=none;fillColor=none;align=left;verticalAlign=middle;whiteSpace=wrap;fontColor=#00A0E3;fontSize=20;" parent="1" vertex="1">
          <mxGeometry x="60" y="190" width="240" height="30" as="geometry" />
        </mxCell>
        <mxCell id="CEepUaHy8Ifzq-DvnbG--23" value="" style="rounded=1;whiteSpace=wrap;html=1;fillColor=#b1ddf0;strokeColor=#10739e;" parent="1" vertex="1">
          <mxGeometry x="50" y="230" width="540" height="150" as="geometry" />
        </mxCell>
        <mxCell id="CEepUaHy8Ifzq-DvnbG--8" value="&lt;b&gt;2. 佐剂搭配&lt;/b&gt;" style="rounded=1;whiteSpace=wrap;html=1;fillColor=#D6F0FF;strokeColor=#00A0E3;fontSize=14;" parent="1" vertex="1">
          <mxGeometry x="220" y="240" width="140" height="60" as="geometry" />
        </mxCell>
        <mxCell id="CEepUaHy8Ifzq-DvnbG--7" value="&lt;b&gt;1. DNA质粒量产&lt;/b&gt;" style="rounded=1;whiteSpace=wrap;html=1;fillColor=#D6F0FF;strokeColor=#00A0E3;fontSize=14;" parent="1" vertex="1">
          <mxGeometry x="60" y="240" width="140" height="60" as="geometry" />
        </mxCell>
        <mxCell id="CEepUaHy8Ifzq-DvnbG--9" value="&lt;b&gt;3. 物理刺激递送系统&lt;/b&gt;&lt;br&gt;（电穿孔、微针）" style="rounded=1;whiteSpace=wrap;html=1;fillColor=#D6F0FF;strokeColor=#00A0E3;fontSize=14;" parent="1" vertex="1">
          <mxGeometry x="380" y="240" width="160" height="60" as="geometry" />
        </mxCell>
        <mxCell id="CEepUaHy8Ifzq-DvnbG--10" value="&lt;b&gt;海外代表&lt;/b&gt;" style="text;html=1;strokeColor=none;fillColor=none;align=center;verticalAlign=middle;whiteSpace=wrap;fontColor=#FF6C2C;fontSize=13;" parent="1" vertex="1">
          <mxGeometry x="60" y="310" width="80" height="20" as="geometry" />
        </mxCell>
        <mxCell id="CEepUaHy8Ifzq-DvnbG--11" value="Genexine" style="rounded=1;whiteSpace=wrap;html=1;fillColor=#FFECE6;strokeColor=#FF6C2C;fontSize=12;" parent="1" vertex="1">
          <mxGeometry x="60" y="335" width="70" height="30" as="geometry" />
        </mxCell>
        <mxCell id="CEepUaHy8Ifzq-DvnbG--12" value="Inovio Pharma" style="rounded=1;whiteSpace=wrap;html=1;fillColor=#FFECE6;strokeColor=#FF6C2C;fontSize=12;" parent="1" vertex="1">
          <mxGeometry x="140" y="335" width="90" height="30" as="geometry" />
        </mxCell>
        <mxCell id="CEepUaHy8Ifzq-DvnbG--13" value="Nykode Therapeutics" style="rounded=1;whiteSpace=wrap;html=1;fillColor=#FFECE6;strokeColor=#FF6C2C;fontSize=12;" parent="1" vertex="1">
          <mxGeometry x="240" y="335" width="110" height="30" as="geometry" />
        </mxCell>
        <mxCell id="CEepUaHy8Ifzq-DvnbG--14" value="&lt;b&gt;国内代表&lt;/b&gt;" style="text;html=1;strokeColor=none;fillColor=none;align=center;verticalAlign=middle;whiteSpace=wrap;fontColor=#FF6C2C;fontSize=13;" parent="1" vertex="1">
          <mxGeometry x="380" y="310" width="80" height="20" as="geometry" />
        </mxCell>
        <mxCell id="CEepUaHy8Ifzq-DvnbG--15" value="东方略" style="rounded=1;whiteSpace=wrap;html=1;fillColor=#FFECE6;strokeColor=#FF6C2C;fontSize=12;" parent="1" vertex="1">
          <mxGeometry x="380" y="335" width="60" height="30" as="geometry" />
        </mxCell>
        <mxCell id="CEepUaHy8Ifzq-DvnbG--16" value="佳揚生技(中国台湾)" style="rounded=1;whiteSpace=wrap;html=1;fillColor=#FFECE6;strokeColor=#FF6C2C;fontSize=12;" parent="1" vertex="1">
          <mxGeometry x="450" y="335" width="120" height="30" as="geometry" />
        </mxCell>
        <mxCell id="CEepUaHy8Ifzq-DvnbG--17" value="&lt;b&gt;下游 · 患者与应用场景&lt;/b&gt;" style="text;html=1;strokeColor=none;fillColor=none;align=left;verticalAlign=middle;whiteSpace=wrap;fontColor=#FF6C2C;fontSize=20;" parent="1" vertex="1">
          <mxGeometry x="60" y="410" width="280" height="30" as="geometry" />
        </mxCell>
        <mxCell id="CEepUaHy8Ifzq-DvnbG--18" value="&lt;b&gt;1. 病毒感染患者&lt;/b&gt;&lt;br&gt;HPV · HIV · HBV" style="rounded=1;whiteSpace=wrap;html=1;fillColor=#FFFBF0;strokeColor=#FF6C2C;fontSize=14;" parent="1" vertex="1">
          <mxGeometry x="60" y="450" width="180" height="60" as="geometry" />
        </mxCell>
        <mxCell id="CEepUaHy8Ifzq-DvnbG--19" value="&lt;b&gt;2. 病毒相关癌症&lt;/b&gt;&lt;br&gt;宫颈癌 · 口咽癌 · 肝癌" style="rounded=1;whiteSpace=wrap;html=1;fillColor=#FFFBF0;strokeColor=#FF6C2C;fontSize=14;" parent="1" vertex="1">
          <mxGeometry x="260" y="450" width="180" height="60" as="geometry" />
        </mxCell>
        <mxCell id="CEepUaHy8Ifzq-DvnbG--22" value="&lt;b&gt;DNA药物产业链全景图&lt;/b&gt;" style="text;html=1;strokeColor=none;fillColor=none;align=center;verticalAlign=middle;whiteSpace=wrap;fontColor=#0A1F3B;fontSize=22;" parent="1" vertex="1">
          <mxGeometry x="210" y="10" width="240" height="30" as="geometry" />
        </mxCell>
      </root>
    </mxGraphModel>
  </diagram>
</mxfile>
